<svg xmlns="http://www.w3.org/2000/svg" xmlns:xlink="http://www.w3.org/1999/xlink" version="1.1" width="256" height="256" viewBox="0 0 256 256" xml:space="preserve">

<defs>
</defs>
<g style="stroke: none; stroke-width: 0; stroke-dasharray: none; stroke-linecap: butt; stroke-linejoin: miter; stroke-miterlimit: 10; fill: none; fill-rule: nonzero; opacity: 1;" transform="translate(1.4065934065934016 1.4065934065934016) scale(2.81 2.81)" >
	<path d="M 66.263 41.256 c -2.209 0 -4 -1.791 -4 -4 V 25.262 C 62.263 15.744 54.519 8 45 8 s -17.262 7.744 -17.262 17.262 v 11.994 c 0 2.209 -1.791 4 -4 4 s -4 -1.791 -4 -4 V 25.262 C 19.738 11.333 31.07 0 45 0 s 25.263 11.333 25.263 25.262 v 11.994 C 70.263 39.465 68.472 41.256 66.263 41.256 z" style="stroke: none; stroke-width: 1; stroke-dasharray: none; stroke-linecap: butt; stroke-linejoin: miter; stroke-miterlimit: 10; fill: rgb(122,100,201); fill-rule: nonzero; opacity: 1;" transform=" matrix(1 0 0 1 0 0) " stroke-linecap="round" />
	<path d="M 71.756 34.393 c -17.754 -4.396 -35.757 -4.396 -53.512 0 c -4.128 1.021 -7.011 4.7 -7.011 8.945 v 37.463 c 0 5.072 4.127 9.199 9.2 9.199 h 49.135 c 5.073 0 9.2 -4.127 9.2 -9.199 V 43.338 C 78.768 39.093 75.884 35.415 71.756 34.393 z M 49 63.021 v 7.058 c 0 2.209 -1.791 4 -4 4 s -4 -1.791 -4 -4 v -7.058 c -2.101 -1.329 -3.5 -3.667 -3.5 -6.337 c 0 -4.142 3.358 -7.5 7.5 -7.5 s 7.5 3.358 7.5 7.5 C 52.5 59.354 51.101 61.692 49 63.021 z" style="stroke: none; stroke-width: 1; stroke-dasharray: none; stroke-linecap: butt; stroke-linejoin: miter; stroke-miterlimit: 10; fill: rgb(122,100,201); fill-rule: nonzero; opacity: 1;" transform=" matrix(1 0 0 1 0 0) " stroke-linecap="round" />
</g>
</svg>