<svg xmlns="http://www.w3.org/2000/svg" xmlns:xlink="http://www.w3.org/1999/xlink" version="1.1" width="256" height="256" viewBox="0 0 256 256" xml:space="preserve">

<defs>
</defs>
<g style="stroke: none; stroke-width: 0; stroke-dasharray: none; stroke-linecap: butt; stroke-linejoin: miter; stroke-miterlimit: 10; fill: none; fill-rule: nonzero; opacity: 1;" transform="translate(1.4065934065934016 1.4065934065934016) scale(2.81 2.81)" >
	<circle cx="28.76" cy="74.14" r="7.5" style="stroke: none; stroke-width: 1; stroke-dasharray: none; stroke-linecap: butt; stroke-linejoin: miter; stroke-miterlimit: 10; fill: rgb(122,100,201); fill-rule: nonzero; opacity: 1;" transform="  matrix(1 0 0 1 0 0) "/>
	<circle cx="72.29" cy="74.14" r="7.5" style="stroke: none; stroke-width: 1; stroke-dasharray: none; stroke-linecap: butt; stroke-linejoin: miter; stroke-miterlimit: 10; fill: rgb(122,100,201); fill-rule: nonzero; opacity: 1;" transform="  matrix(1 0 0 1 0 0) "/>
	<path d="M 14.596 25.392 c -1.382 0 -2.626 -0.961 -2.93 -2.367 l -1.267 -5.869 c -0.35 -1.623 -1.81 -2.8 -3.469 -2.8 H 3 c -1.657 0 -3 -1.343 -3 -3 s 1.343 -3 3 -3 h 3.93 c 4.465 0 8.391 3.168 9.334 7.533 l 1.268 5.87 c 0.35 1.62 -0.68 3.216 -2.299 3.566 C 15.018 25.37 14.805 25.392 14.596 25.392 z" style="stroke: none; stroke-width: 1; stroke-dasharray: none; stroke-linecap: butt; stroke-linejoin: miter; stroke-miterlimit: 10; fill: rgb(122,100,201); fill-rule: nonzero; opacity: 1;" transform=" matrix(1 0 0 1 0 0) " stroke-linecap="round" />
	<path d="M 89.329 20.5 c -0.569 -0.702 -1.426 -1.109 -2.329 -1.109 H 14.598 c -0.907 0 -1.765 0.41 -2.334 1.116 s -0.79 1.631 -0.598 2.518 l 6.507 30.136 c 1.095 5.073 5.657 8.755 10.847 8.755 h 43.743 c 5.22 0 9.787 -3.708 10.86 -8.817 l 6.313 -30.09 C 90.122 22.123 89.898 21.202 89.329 20.5 z M 36.377 48.901 c -0.174 0.03 -0.348 0.045 -0.519 0.045 c -1.431 0 -2.698 -1.027 -2.952 -2.485 l -2.126 -12.193 c -0.285 -1.632 0.808 -3.186 2.44 -3.471 c 1.632 -0.284 3.186 0.808 3.471 2.44 l 2.126 12.193 C 39.102 47.063 38.01 48.616 36.377 48.901 z M 53.853 45.946 c 0 1.657 -1.343 3 -3 3 s -3 -1.344 -3 -3 V 33.753 c 0 -1.657 1.343 -3 3 -3 s 3 1.343 3 3 V 45.946 z M 70.817 34.268 l -2.126 12.193 c -0.254 1.458 -1.521 2.485 -2.951 2.485 c -0.172 0 -0.345 -0.015 -0.52 -0.045 c -1.632 -0.285 -2.725 -1.839 -2.439 -3.471 l 2.126 -12.193 c 0.284 -1.634 1.837 -2.726 3.471 -2.44 C 70.01 31.082 71.102 32.636 70.817 34.268 z" style="stroke: none; stroke-width: 1; stroke-dasharray: none; stroke-linecap: butt; stroke-linejoin: miter; stroke-miterlimit: 10; fill: rgb(122,100,201); fill-rule: nonzero; opacity: 1;" transform=" matrix(1 0 0 1 0 0) " stroke-linecap="round" />
</g>
</svg>