<?xml version="1.0" standalone="no"?>
<!DOCTYPE svg PUBLIC "-//W3C//DTD SVG 20010904//EN"
 "http://www.w3.org/TR/2001/REC-SVG-20010904/DTD/svg10.dtd">
<svg version="1.0" xmlns="http://www.w3.org/2000/svg"
 width="1067.000000pt" height="1067.000000pt" viewBox="0 0 1067.000000 1067.000000"
 preserveAspectRatio="xMidYMid meet">

<g transform="translate(0.000000,1067.000000) scale(0.100000,-0.100000)"
fill="#313131" stroke="none">
<path d="M5201 8179 c-82 -14 -185 -53 -264 -99 -63 -37 -338 -308 -2223
-2194 -1483 -1483 -2163 -2170 -2190 -2211 -84 -131 -132 -318 -120 -472 26
-317 223 -571 526 -674 89 -31 104 -33 235 -33 120 -1 151 2 215 22 94 30 191
79 260 132 30 22 873 861 1872 1863 l1817 1822 1833 -1831 c1008 -1007 1856
-1847 1883 -1866 69 -49 157 -92 245 -119 63 -20 96 -24 210 -24 155 0 229 18
360 86 389 202 524 699 293 1079 -40 65 -334 364 -2167 2198 -1166 1168 -2150
2146 -2186 2174 -75 57 -179 110 -265 133 -73 19 -260 28 -334 14z"/>
</g>
</svg>
