<?xml version="1.0" standalone="no"?>
<!DOCTYPE svg PUBLIC "-//W3C//DTD SVG 20010904//EN"
 "http://www.w3.org/TR/2001/REC-SVG-20010904/DTD/svg10.dtd">
<svg version="1.0" xmlns="http://www.w3.org/2000/svg"
 width="1067.000000pt" height="1067.000000pt" viewBox="0 0 1067.000000 1067.000000"
 preserveAspectRatio="xMidYMid meet">

<g transform="translate(0.000000,1067.000000) scale(0.100000,-0.100000)"
fill="#7a64c9" stroke="none">
<path d="M1033 8170 c-123 -23 -265 -90 -371 -179 -56 -46 -141 -159 -181
-238 -117 -235 -100 -537 43 -758 45 -69 4251 -4286 4350 -4361 138 -105 273
-148 461 -148 191 0 323 43 465 152 36 28 1020 1006 2186 2174 1833 1834 2127
2133 2167 2198 231 380 96 877 -293 1079 -131 68 -205 86 -360 86 -114 0 -147
-4 -210 -24 -88 -27 -176 -70 -245 -119 -27 -19 -875 -859 -1883 -1866 l-1833
-1831 -1817 1822 c-999 1002 -1842 1841 -1872 1863 -68 52 -165 101 -255 130
-80 25 -266 35 -352 20z"/>
</g>
</svg>
